<?xml version="1.0" encoding="UTF-8"?>
<svg version="1.1" xmlns="http://www.w3.org/2000/svg" width="128" height="128">
<path d="M0 0 C4.55555556 0.55555556 4.55555556 0.55555556 6 2 C6 3.98 6 5.96 6 8 C13.26 8 20.52 8 28 8 C28 6.02 28 4.04 28 2 C28.66 1.34 29.32 0.68 30 0 C34.55555556 0.55555556 34.55555556 0.55555556 36 2 C36 3.98 36 5.96 36 8 C43.26 8 50.52 8 58 8 C58 6.02 58 4.04 58 2 C58.66 1.34 59.32 0.68 60 0 C64.55555556 0.55555556 64.55555556 0.55555556 66 2 C66.04080783 3.99958364 66.04254356 6.00045254 66 8 C67.423125 7.938125 67.423125 7.938125 68.875 7.875 C72 8 72 8 74 10 C73.44444444 14.55555556 73.44444444 14.55555556 72 16 C70.02 16 68.04 16 66 16 C66 23.26 66 30.52 66 38 C67.98 38 69.96 38 72 38 C72.66 38.66 73.32 39.32 74 40 C73.44444444 44.55555556 73.44444444 44.55555556 72 46 C70.02 46 68.04 46 66 46 C66 53.26 66 60.52 66 68 C67.98 68 69.96 68 72 68 C72.66 68.66 73.32 69.32 74 70 C73.44444444 74.55555556 73.44444444 74.55555556 72 76 C70.00041636 76.04080783 67.99954746 76.04254356 66 76 C66.04125 76.94875 66.0825 77.8975 66.125 78.875 C66 82 66 82 64 84 C59.44444444 83.44444444 59.44444444 83.44444444 58 82 C58 80.02 58 78.04 58 76 C50.74 76 43.48 76 36 76 C36 77.98 36 79.96 36 82 C35.34 82.66 34.68 83.32 34 84 C29.44444444 83.44444444 29.44444444 83.44444444 28 82 C28 80.02 28 78.04 28 76 C20.74 76 13.48 76 6 76 C6 77.98 6 79.96 6 82 C5.01 82.99 5.01 82.99 4 84 C-0.55555556 83.44444444 -0.55555556 83.44444444 -2 82 C-2.04080783 80.00041636 -2.04254356 77.99954746 -2 76 C-2.94875 76.04125 -3.8975 76.0825 -4.875 76.125 C-8 76 -8 76 -10 74 C-9.44444444 69.44444444 -9.44444444 69.44444444 -8 68 C-6.02 68 -4.04 68 -2 68 C-2 60.74 -2 53.48 -2 46 C-3.98 46 -5.96 46 -8 46 C-8.66 45.34 -9.32 44.68 -10 44 C-9.44444444 39.44444444 -9.44444444 39.44444444 -8 38 C-6.02 38 -4.04 38 -2 38 C-2 30.74 -2 23.48 -2 16 C-3.98 16 -5.96 16 -8 16 C-8.66 15.34 -9.32 14.68 -10 14 C-9.44444444 9.44444444 -9.44444444 9.44444444 -8 8 C-6.00041636 7.95919217 -3.99954746 7.95745644 -2 8 C-2.04125 7.05125 -2.0825 6.1025 -2.125 5.125 C-2 2 -2 2 0 0 Z M6 16 C6 23.26 6 30.52 6 38 C13.26 38 20.52 38 28 38 C28 30.74 28 23.48 28 16 C20.74 16 13.48 16 6 16 Z M36 16 C36 23.26 36 30.52 36 38 C43.26 38 50.52 38 58 38 C58 30.74 58 23.48 58 16 C50.74 16 43.48 16 36 16 Z M6 46 C6 53.26 6 60.52 6 68 C13.26 68 20.52 68 28 68 C28 60.74 28 53.48 28 46 C20.74 46 13.48 46 6 46 Z M36 46 C36 53.26 36 60.52 36 68 C43.26 68 50.52 68 58 68 C58 60.74 58 53.48 58 46 C50.74 46 43.48 46 36 46 Z " fill="#FE6F88" transform="translate(32,22)"/>
<path d="M0 0 C2.5625 0.1875 2.5625 0.1875 4.5625 2.1875 C4.7578125 5.2265625 4.7578125 5.2265625 4.6875 8.8125 C4.66945313 10.00101563 4.65140625 11.18953125 4.6328125 12.4140625 C4.60960938 13.32929687 4.58640625 14.24453125 4.5625 15.1875 C6.8725 15.5175 9.1825 15.8475 11.5625 16.1875 C11.59137814 19.66664941 11.60925687 23.14576831 11.625 26.625 C11.63337891 27.61822266 11.64175781 28.61144531 11.65039062 29.63476562 C11.65361328 30.57900391 11.65683594 31.52324219 11.66015625 32.49609375 C11.66539307 33.37064209 11.67062988 34.24519043 11.67602539 35.14624023 C11.5625 37.1875 11.5625 37.1875 10.5625 38.1875 C9.00077255 38.27435603 7.43520656 38.29452219 5.87109375 38.28515625 C4.92685547 38.28193359 3.98261719 38.27871094 3.00976562 38.27539062 C2.01654297 38.26701172 1.02332031 38.25863281 0 38.25 C-0.99708984 38.24548828 -1.99417969 38.24097656 -3.02148438 38.23632812 C-5.49354849 38.22450007 -7.96549518 38.20801849 -10.4375 38.1875 C-10.7675 35.8775 -11.0975 33.5675 -11.4375 31.1875 C-12.35273437 31.21070312 -13.26796875 31.23390625 -14.2109375 31.2578125 C-15.99371094 31.28488281 -15.99371094 31.28488281 -17.8125 31.3125 C-18.99585937 31.33570312 -20.17921875 31.35890625 -21.3984375 31.3828125 C-24.4375 31.1875 -24.4375 31.1875 -26.4375 29.1875 C-26.625 26.625 -26.625 26.625 -26.4375 24.1875 C-25.4375 23.1875 -25.4375 23.1875 -22.27734375 23.08984375 C-20.98957031 23.10144531 -19.70179687 23.11304687 -18.375 23.125 C-17.08464844 23.13402344 -15.79429688 23.14304687 -14.46484375 23.15234375 C-13.46582031 23.16394531 -12.46679688 23.17554687 -11.4375 23.1875 C-11.47875 22.23875 -11.52 21.29 -11.5625 20.3125 C-11.4375 17.1875 -11.4375 17.1875 -9.4375 15.1875 C-6.3125 15.0625 -6.3125 15.0625 -3.4375 15.1875 C-3.44910156 14.18847656 -3.46070312 13.18945312 -3.47265625 12.16015625 C-3.48167969 10.86980469 -3.49070312 9.57945313 -3.5 8.25 C-3.51160156 6.96222656 -3.52320312 5.67445312 -3.53515625 4.34765625 C-3.40890679 0.2622236 -3.40890679 0.2622236 0 0 Z " fill="#FD4485" transform="translate(116.4375,89.8125)"/>
<path d="M0 0 C2.4375 0.1875 2.4375 0.1875 3.4375 1.1875 C3.51021741 3.54063555 3.52120868 5.89583668 3.5 8.25 C3.49097656 9.54035156 3.48195313 10.83070312 3.47265625 12.16015625 C3.46105469 13.15917969 3.44945312 14.15820312 3.4375 15.1875 C4.860625 15.125625 4.860625 15.125625 6.3125 15.0625 C9.4375 15.1875 9.4375 15.1875 11.4375 17.1875 C11.5625 20.3125 11.5625 20.3125 11.4375 23.1875 C12.43652344 23.17589844 13.43554688 23.16429688 14.46484375 23.15234375 C15.75519531 23.14332031 17.04554687 23.13429688 18.375 23.125 C19.66277344 23.11339844 20.95054688 23.10179688 22.27734375 23.08984375 C25.4375 23.1875 25.4375 23.1875 26.4375 24.1875 C26.625 26.625 26.625 26.625 26.4375 29.1875 C24.4375 31.1875 24.4375 31.1875 21.3984375 31.3828125 C20.21507813 31.35960938 19.03171875 31.33640625 17.8125 31.3125 C16.62398437 31.29445313 15.43546875 31.27640625 14.2109375 31.2578125 C13.29570312 31.23460938 12.38046875 31.21140625 11.4375 31.1875 C11.1075 33.4975 10.7775 35.8075 10.4375 38.1875 C6.95835059 38.21637814 3.47923169 38.23425687 0 38.25 C-1.48983398 38.26256836 -1.48983398 38.26256836 -3.00976562 38.27539062 C-3.95400391 38.27861328 -4.89824219 38.28183594 -5.87109375 38.28515625 C-6.74564209 38.29039307 -7.62019043 38.29562988 -8.52124023 38.30102539 C-10.5625 38.1875 -10.5625 38.1875 -11.5625 37.1875 C-11.64935603 35.62577255 -11.66952219 34.06020656 -11.66015625 32.49609375 C-11.65693359 31.55185547 -11.65371094 30.60761719 -11.65039062 29.63476562 C-11.64201172 28.64154297 -11.63363281 27.64832031 -11.625 26.625 C-11.62048828 25.62791016 -11.61597656 24.63082031 -11.61132812 23.60351562 C-11.59950007 21.13145151 -11.58301849 18.65950482 -11.5625 16.1875 C-8.0975 15.6925 -8.0975 15.6925 -4.5625 15.1875 C-4.58570313 14.27226563 -4.60890625 13.35703125 -4.6328125 12.4140625 C-4.65988281 10.63128906 -4.65988281 10.63128906 -4.6875 8.8125 C-4.71070313 7.62914063 -4.73390625 6.44578125 -4.7578125 5.2265625 C-4.51095603 1.38547588 -3.91961009 0.28680074 0 0 Z " fill="#FD4485" transform="translate(11.5625,89.8125)"/>
<path d="M0 0 C3.47914941 -0.02887814 6.95826831 -0.04675687 10.4375 -0.0625 C11.92733398 -0.07506836 11.92733398 -0.07506836 13.44726562 -0.08789062 C14.39150391 -0.09111328 15.33574219 -0.09433594 16.30859375 -0.09765625 C17.62041626 -0.10551147 17.62041626 -0.10551147 18.95874023 -0.11352539 C21 0 21 0 22 1 C22.08685603 2.56172745 22.10702219 4.12729344 22.09765625 5.69140625 C22.09443359 6.63564453 22.09121094 7.57988281 22.08789062 8.55273438 C22.07532227 10.04256836 22.07532227 10.04256836 22.0625 11.5625 C22.05798828 12.55958984 22.05347656 13.55667969 22.04882812 14.58398438 C22.03700007 17.05604849 22.02051849 19.52799518 22 22 C19.69 22.33 17.38 22.66 15 23 C15.02320312 23.91523438 15.04640625 24.83046875 15.0703125 25.7734375 C15.09738281 27.55621094 15.09738281 27.55621094 15.125 29.375 C15.14820312 30.55835937 15.17140625 31.74171875 15.1953125 32.9609375 C15 36 15 36 13 38 C10.4375 38.1875 10.4375 38.1875 8 38 C7 37 7 37 6.90234375 33.83984375 C6.91394531 32.55207031 6.92554687 31.26429687 6.9375 29.9375 C6.94652344 28.64714844 6.95554687 27.35679688 6.96484375 26.02734375 C6.97644531 25.02832031 6.98804687 24.02929688 7 23 C6.05125 23.04125 5.1025 23.0825 4.125 23.125 C1 23 1 23 -1 21 C-1.125 17.875 -1.125 17.875 -1 15 C-1.99902344 15.01160156 -2.99804688 15.02320313 -4.02734375 15.03515625 C-5.31769531 15.04417969 -6.60804687 15.05320312 -7.9375 15.0625 C-9.22527344 15.07410156 -10.51304688 15.08570313 -11.83984375 15.09765625 C-15 15 -15 15 -16 14 C-16.1875 11.5625 -16.1875 11.5625 -16 9 C-14 7 -14 7 -10.9609375 6.8046875 C-9.18589844 6.83949219 -9.18589844 6.83949219 -7.375 6.875 C-5.59222656 6.90207031 -5.59222656 6.90207031 -3.7734375 6.9296875 C-2.85820313 6.95289063 -1.94296875 6.97609375 -1 7 C-0.67 4.69 -0.34 2.38 0 0 Z " fill="#FF9D8D" transform="translate(106,0)"/>
<path d="M0 0 C0.87454834 0.00523682 1.74909668 0.01047363 2.65014648 0.01586914 C3.59438477 0.0190918 4.53862305 0.02231445 5.51147461 0.02563477 C6.50469727 0.03401367 7.49791992 0.04239258 8.52124023 0.05102539 C9.51833008 0.05553711 10.51541992 0.06004883 11.54272461 0.06469727 C14.01478872 0.07652532 16.48673541 0.0930069 18.95874023 0.11352539 C19.28874023 2.42352539 19.61874023 4.73352539 19.95874023 7.11352539 C21.3315918 7.0787207 21.3315918 7.0787207 22.73217773 7.04321289 C23.92069336 7.02516602 25.10920898 7.00711914 26.33374023 6.98852539 C27.51709961 6.96532227 28.70045898 6.94211914 29.91967773 6.91821289 C32.95874023 7.11352539 32.95874023 7.11352539 34.95874023 9.11352539 C35.14624023 11.67602539 35.14624023 11.67602539 34.95874023 14.11352539 C33.95874023 15.11352539 33.95874023 15.11352539 30.79858398 15.21118164 C28.86692383 15.1937793 28.86692383 15.1937793 26.89624023 15.17602539 C25.60588867 15.16700195 24.31553711 15.15797852 22.98608398 15.14868164 C21.98706055 15.13708008 20.98803711 15.12547852 19.95874023 15.11352539 C19.99999023 16.06227539 20.04124023 17.01102539 20.08374023 17.98852539 C19.95874023 21.11352539 19.95874023 21.11352539 17.95874023 23.11352539 C14.83374023 23.23852539 14.83374023 23.23852539 11.95874023 23.11352539 C11.9703418 24.11254883 11.98194336 25.11157227 11.99389648 26.14086914 C12.00291992 27.4312207 12.01194336 28.72157227 12.02124023 30.05102539 C12.0328418 31.33879883 12.04444336 32.62657227 12.05639648 33.95336914 C11.95874023 37.11352539 11.95874023 37.11352539 10.95874023 38.11352539 C8.52124023 38.30102539 8.52124023 38.30102539 5.95874023 38.11352539 C3.95874023 36.11352539 3.95874023 36.11352539 3.76342773 33.07446289 C3.78663086 31.89110352 3.80983398 30.70774414 3.83374023 29.48852539 C3.85178711 28.30000977 3.86983398 27.11149414 3.88842773 25.88696289 C3.91163086 24.97172852 3.93483398 24.05649414 3.95874023 23.11352539 C1.64874023 22.78352539 -0.66125977 22.45352539 -3.04125977 22.11352539 C-3.07013791 18.63437598 -3.08801664 15.15525709 -3.10375977 11.67602539 C-3.11213867 10.68280273 -3.12051758 9.68958008 -3.12915039 8.66625977 C-3.13237305 7.72202148 -3.1355957 6.7777832 -3.13891602 5.80493164 C-3.14415283 4.9303833 -3.14938965 4.05583496 -3.15478516 3.15478516 C-3.00084432 0.38682964 -2.76795552 0.15394083 0 0 Z " fill="#FF9D8D" transform="translate(3.041259765625,-0.113525390625)"/>
<path d="M0 0 C2.5625 0.1875 2.5625 0.1875 4.5625 2.1875 C4.7578125 5.4453125 4.7578125 5.4453125 4.6875 9.3125 C4.66945313 10.59382813 4.65140625 11.87515625 4.6328125 13.1953125 C4.60960938 14.18273437 4.58640625 15.17015625 4.5625 16.1875 C1.9225 16.1875 -0.7175 16.1875 -3.4375 16.1875 C-3.46435095 13.70826199 -3.48426547 11.2293116 -3.5 8.75 C-3.51256836 7.68942383 -3.51256836 7.68942383 -3.52539062 6.60742188 C-3.53403588 4.80056441 -3.48970011 2.99362397 -3.4375 1.1875 C-2.4375 0.1875 -2.4375 0.1875 0 0 Z " fill="#FEC7D1" transform="translate(116.4375,89.8125)"/>
<path d="M0 0 C2.4375 0.1875 2.4375 0.1875 3.4375 1.1875 C3.51063567 3.71799402 3.52997527 6.22054837 3.5 8.75 C3.49548828 9.46091797 3.49097656 10.17183594 3.48632812 10.90429688 C3.47450864 12.66540013 3.45657263 14.42646036 3.4375 16.1875 C0.7975 16.1875 -1.8425 16.1875 -4.5625 16.1875 C-4.61634521 13.89608714 -4.65522087 11.60431812 -4.6875 9.3125 C-4.71070313 8.03632812 -4.73390625 6.76015625 -4.7578125 5.4453125 C-4.52061493 1.48885705 -4.06201809 0.29722084 0 0 Z " fill="#FEC7D1" transform="translate(11.5625,89.8125)"/>
<path d="M0 0 C1.1859375 0.00257812 2.371875 0.00515625 3.59375 0.0078125 C4.7796875 0.00523438 5.965625 0.00265625 7.1875 0 C10.09375 0.1328125 10.09375 0.1328125 11.09375 1.1328125 C11.28125 3.5703125 11.28125 3.5703125 11.09375 6.1328125 C8.39296247 8.83360003 6.85339828 8.43175608 3.09375 8.4453125 C2.02125 8.46207031 0.94875 8.47882813 -0.15625 8.49609375 C-1.06375 8.37621094 -1.97125 8.25632812 -2.90625 8.1328125 C-4.90625 5.1328125 -4.90625 5.1328125 -4.59375 3.0078125 C-3.49737033 0.01768614 -3.35941236 0.15352153 0 0 Z " fill="#FFC3CD" transform="translate(71.90625,112.8671875)"/>
<path d="M0 0 C1.76150391 -0.02126953 1.76150391 -0.02126953 3.55859375 -0.04296875 C6.5625 0.1875 6.5625 0.1875 8.5625 2.1875 C8.00694444 6.74305556 8.00694444 6.74305556 6.5625 8.1875 C4.58630553 8.31264928 2.60511827 8.3632276 0.625 8.375 C-0.45652344 8.38917969 -1.53804687 8.40335938 -2.65234375 8.41796875 C-5.4375 8.1875 -5.4375 8.1875 -7.4375 6.1875 C-7.625 3.625 -7.625 3.625 -7.4375 1.1875 C-5.56506019 -0.68493981 -2.50090482 0.01369608 0 0 Z " fill="#FFC3CD" transform="translate(52.4375,112.8125)"/>
<path d="M0 0 C4.55555556 0.55555556 4.55555556 0.55555556 6 2 C6.12514928 3.97619447 6.1757276 5.95738173 6.1875 7.9375 C6.20167969 9.01902344 6.21585938 10.10054687 6.23046875 11.21484375 C6 14 6 14 4 16 C1.4375 16.1875 1.4375 16.1875 -1 16 C-2.87243981 14.12756019 -2.17380392 11.06340482 -2.1875 8.5625 C-2.20167969 7.38816406 -2.21585937 6.21382813 -2.23046875 5.00390625 C-2 2 -2 2 0 0 Z " fill="#FFD5DB" transform="translate(115,67)"/>
<path d="M0 0 C1.875 0.6875 1.875 0.6875 2.875 1.6875 C2.9739294 3.85230797 3.004711 6.02043785 3 8.1875 C3.00257812 9.3734375 3.00515625 10.559375 3.0078125 11.78125 C2.875 14.6875 2.875 14.6875 1.875 15.6875 C-0.5625 15.875 -0.5625 15.875 -3.125 15.6875 C-5.82578753 12.98671247 -5.42394358 11.44714828 -5.4375 7.6875 C-5.45425781 6.615 -5.47101562 5.5425 -5.48828125 4.4375 C-5.36839844 3.53 -5.24851562 2.6225 -5.125 1.6875 C-2.125 -0.3125 -2.125 -0.3125 0 0 Z " fill="#FFD5DB" transform="translate(12.125,67.3125)"/>
<path d="M0 0 C2.5625 0.1875 2.5625 0.1875 4.5625 2.1875 C4.86328125 4.9375 4.86328125 4.9375 4.875 8.1875 C4.89175781 9.26 4.90851563 10.3325 4.92578125 11.4375 C4.74595703 12.79875 4.74595703 12.79875 4.5625 14.1875 C1.5625 16.1875 1.5625 16.1875 -0.5625 15.875 C-2.4375 15.1875 -2.4375 15.1875 -3.4375 14.1875 C-3.5364294 12.02269203 -3.567211 9.85456215 -3.5625 7.6875 C-3.56507812 6.5015625 -3.56765625 5.315625 -3.5703125 4.09375 C-3.39516757 0.26116674 -3.39516757 0.26116674 0 0 Z " fill="#FFDEE3" transform="translate(116.4375,44.8125)"/>
<path d="M0 0 C2.4375 0.1875 2.4375 0.1875 3.4375 1.1875 C3.56287741 3.33057896 3.61324364 5.47828886 3.625 7.625 C3.63917969 8.79933594 3.65335938 9.97367188 3.66796875 11.18359375 C3.4375 14.1875 3.4375 14.1875 1.4375 16.1875 C-3.11805556 15.63194444 -3.11805556 15.63194444 -4.5625 14.1875 C-4.68764928 12.21130553 -4.7382276 10.23011827 -4.75 8.25 C-4.76417969 7.16847656 -4.77835937 6.08695313 -4.79296875 4.97265625 C-4.48701863 1.27532678 -3.74585114 0.27408667 0 0 Z " fill="#FFDEE3" transform="translate(11.5625,44.8125)"/>
<path d="M0 0 C1.08152344 -0.01417969 2.16304687 -0.02835937 3.27734375 -0.04296875 C6.0625 0.1875 6.0625 0.1875 8.0625 2.1875 C8.25 4.75 8.25 4.75 8.0625 7.1875 C6.19006019 9.05993981 3.12590482 8.36130392 0.625 8.375 C-0.54933594 8.38917969 -1.72367187 8.40335938 -2.93359375 8.41796875 C-5.9375 8.1875 -5.9375 8.1875 -7.9375 6.1875 C-7.18513529 0.01810941 -5.98340298 0.03557314 0 0 Z " fill="#FFF0F2" transform="translate(74.9375,6.8125)"/>
<path d="M0 0 C1.0725 -0.01675781 2.145 -0.03351562 3.25 -0.05078125 C4.1575 0.06910156 5.065 0.18898438 6 0.3125 C8 3.3125 8 3.3125 7.6875 5.4375 C7 7.3125 7 7.3125 6 8.3125 C3.83519203 8.4114294 1.66706215 8.442211 -0.5 8.4375 C-1.6859375 8.44007812 -2.871875 8.44265625 -4.09375 8.4453125 C-7 8.3125 -7 8.3125 -8 7.3125 C-8.1875 4.875 -8.1875 4.875 -8 2.3125 C-5.29921247 -0.38828753 -3.75964828 0.01355642 0 0 Z " fill="#FFF0F2" transform="translate(53,6.6875)"/>
<path d="M0 0 C1.93166016 0.01740234 1.93166016 0.01740234 3.90234375 0.03515625 C5.19269531 0.04417969 6.48304687 0.05320312 7.8125 0.0625 C8.81152344 0.07410156 9.81054688 0.08570312 10.83984375 0.09765625 C10.83984375 2.73765625 10.83984375 5.37765625 10.83984375 8.09765625 C8.71511799 8.15152254 6.59000723 8.19038696 4.46484375 8.22265625 C2.68980469 8.25746094 2.68980469 8.25746094 0.87890625 8.29296875 C-2.16015625 8.09765625 -2.16015625 8.09765625 -4.16015625 6.09765625 C-4.34765625 3.53515625 -4.34765625 3.53515625 -4.16015625 1.09765625 C-3.16015625 0.09765625 -3.16015625 0.09765625 0 0 Z " fill="#FFC3CD" transform="translate(94.16015625,112.90234375)"/>
<path d="M0 0 C2.31243792 -0.02685412 4.6249627 -0.04632841 6.9375 -0.0625 C8.22527344 -0.07410156 9.51304688 -0.08570312 10.83984375 -0.09765625 C14 0 14 0 15 1 C15.1875 3.4375 15.1875 3.4375 15 6 C13 8 13 8 9.9609375 8.1953125 C8.77757812 8.17210938 7.59421875 8.14890625 6.375 8.125 C5.18648437 8.10695313 3.99796875 8.08890625 2.7734375 8.0703125 C1.85820312 8.04710938 0.94296875 8.02390625 0 8 C0 5.36 0 2.72 0 0 Z " fill="#FFC3CD" transform="translate(23,113)"/>
<path d="M0 0 C2.64 0 5.28 0 8 0 C8.05386629 2.12472576 8.09273071 4.24983652 8.125 6.375 C8.14820312 7.55835938 8.17140625 8.74171875 8.1953125 9.9609375 C8 13 8 13 6 15 C3.4375 15.1875 3.4375 15.1875 1 15 C0 14 0 14 -0.09765625 10.83984375 C-0.08025391 8.90818359 -0.08025391 8.90818359 -0.0625 6.9375 C-0.05347656 5.64714844 -0.04445313 4.35679688 -0.03515625 3.02734375 C-0.02355469 2.02832031 -0.01195313 1.02929688 0 0 Z " fill="#FFE8EB" transform="translate(113,23)"/>
<path d="M0 0 C2.64 0 5.28 0 8 0 C8.02685412 2.31243792 8.04632841 4.6249627 8.0625 6.9375 C8.07410156 8.22527344 8.08570313 9.51304688 8.09765625 10.83984375 C8 14 8 14 7 15 C4.5625 15.1875 4.5625 15.1875 2 15 C0 13 0 13 -0.1953125 9.9609375 C-0.17210937 8.77757812 -0.14890625 7.59421875 -0.125 6.375 C-0.10695313 5.18648437 -0.08890625 3.99796875 -0.0703125 2.7734375 C-0.04710937 1.85820312 -0.02390625 0.94296875 0 0 Z " fill="#FFE8EB" transform="translate(7,23)"/>
<path d="M0 0 C1.77503906 0.03480469 1.77503906 0.03480469 3.5859375 0.0703125 C5.36871094 0.09738281 5.36871094 0.09738281 7.1875 0.125 C8.10273437 0.14820313 9.01796875 0.17140625 9.9609375 0.1953125 C9.9609375 2.8353125 9.9609375 5.4753125 9.9609375 8.1953125 C7.64849958 8.22216662 5.3359748 8.24164091 3.0234375 8.2578125 C1.73566406 8.26941406 0.44789062 8.28101563 -0.87890625 8.29296875 C-4.0390625 8.1953125 -4.0390625 8.1953125 -5.0390625 7.1953125 C-5.2265625 4.7578125 -5.2265625 4.7578125 -5.0390625 2.1953125 C-3.0390625 0.1953125 -3.0390625 0.1953125 0 0 Z " fill="#FFF0F2" transform="translate(95.0390625,6.8046875)"/>
<path d="M0 0 C2.12472576 -0.05386629 4.24983652 -0.09273071 6.375 -0.125 C7.55835938 -0.14820313 8.74171875 -0.17140625 9.9609375 -0.1953125 C13 0 13 0 15 2 C15.1875 4.5625 15.1875 4.5625 15 7 C14 8 14 8 10.83984375 8.09765625 C8.90818359 8.08025391 8.90818359 8.08025391 6.9375 8.0625 C5.64714844 8.05347656 4.35679688 8.04445313 3.02734375 8.03515625 C2.02832031 8.02355469 1.02929688 8.01195312 0 8 C0 5.36 0 2.72 0 0 Z " fill="#FFF0F2" transform="translate(23,7)"/>
</svg>
